<svg xmlns="http://www.w3.org/2000/svg" xmlns:xlink="http://www.w3.org/1999/xlink" width="140" height="28" version="1.1" viewBox="0 0 140 28"><desc>Created with Sketch.</desc><defs><polygon id="path-1" points="0 28 140 28 140 0 0 0"/></defs><g id="Page-1" fill="none" fill-rule="evenodd" stroke="none" stroke-width="1"><g id="首页" transform="translate(-618.000000, -157.000000)"><g id="Page-1" transform="translate(618.000000, 157.000000)"><path id="Fill-1" fill="#FFF" d="M8,28 L0,28 L0,18.1672899 C0,13.6566901 3.58179046,10 8,10 L8,28 Z"/><path id="Fill-3" fill="#FFF" d="M31,28 L23,28 L23,18.2282813 C23,13.6839974 26.5817905,10 31,10 L31,10 L31,28 Z"/><path id="Fill-5" fill="#FFF" d="M80,28 L72,28 L72,18.2282813 C72,13.6839974 75.5817905,10 80,10 L80,28 Z"/><mask id="mask-2" fill="#fff"><use xlink:href="#path-1"/></mask><polygon id="Fill-7" fill="#FFF" points="33 28 41 28 41 10 33 10" mask="url(#mask-2)"/><path id="Fill-9" fill="#FFF" d="M93,28 L85,28 L85,18.2282813 C85,13.6839974 88.5817905,10 93,10 L93,10 L93,28 Z" mask="url(#mask-2)"/><polygon id="Fill-10" fill="#FFF" points="95 28 103 28 103 10 95 10" mask="url(#mask-2)"/><polygon id="Fill-11" fill="#FFF" points="117 18 125 18 125 10 117 10" mask="url(#mask-2)"/><polygon id="Fill-12" fill="#FFF" points="117 28 117 22 125 22 125 28" mask="url(#mask-2)"/><path id="Fill-13" fill="#FFF" d="M116,28 L108,28 L108,18.2282813 C108,13.6839974 111.58179,10 116,10 L116,10 L116,28 Z" mask="url(#mask-2)"/><path id="Fill-14" fill="#FFF" d="M140,28 L132,28 L132,18.2282813 C132,13.6839974 135.58179,10 140,10 L140,10 L140,28 Z" mask="url(#mask-2)"/><polygon id="Fill-15" fill="#FFF" points="43 28 49 28 49 22 43 22" mask="url(#mask-2)"/><polygon id="Fill-16" fill="#FFF" points="10 0 10 17.349 10 28 18 28 18 17.349 18 0" mask="url(#mask-2)"/><polyline id="Fill-17" fill="#FFF" points="62.472 27.963 72.682 3.201 139 3.201 139 0 65.841 0 65.826 0 65.826 .046 58.59 16.241 51.397 .183 51.397 0 51.336 0 23 0 23 3.201 44.498 3.201 54.721 28 55.148 28 62.032 28 62.46 28" mask="url(#mask-2)"/><polygon id="Fill-18" fill="#FFF" points="117 18 125 18 125 10 117 10" mask="url(#mask-2)"/><polygon id="Fill-19" fill="#FFF" points="117 28 125 28 125 20 117 20" mask="url(#mask-2)"/></g></g></g></svg>